<svg width="1461" height="1395" viewBox="0 0 1461 1395" fill="none" xmlns="http://www.w3.org/2000/svg">
<path opacity="0.5" d="M1460.45 742.787C1455.27 585.887 1316.82 454.312 1256.41 303.702C1235.39 251.286 1223.53 195.469 1192.61 147.08C1121.92 36.2146 973.836 -2.40862 846.393 1.03554C785.606 2.6658 723.933 11.8387 674.752 42.7597C636.931 66.5379 608.747 101.673 581.259 136.304L98.8974 742.415C45.0523 810.095 -11.5316 887.823 2.63688 977.693C12.367 1039.61 54.3467 1094.39 95.5497 1145.22C146.178 1207.69 203.167 1272.95 279.374 1296.53C366.533 1323.55 454.836 1288.93 544.085 1294.23C688.769 1302.7 829.977 1415.14 969.502 1391.07C1034.63 1379.83 1088.04 1339.66 1133.56 1295.42C1219.4 1212.04 1263.91 1104.39 1338.87 1015.23C1402.95 939.024 1463.99 850.197 1460.45 742.787Z" fill="#16B4DD"/>
</svg>
